<?xml version="1.0" encoding="UTF-8"?>
<svg width="326px" height="78px" viewBox="0 0 326 78" version="1.1" xmlns="http://www.w3.org/2000/svg" xmlns:xlink="http://www.w3.org/1999/xlink">
    <title>Furni logo with bg</title>
    <g id="Page-1" stroke="none" stroke-width="1" fill="none" fill-rule="evenodd">
        <g id="Furni-logo-with-bg" transform="translate(0.000000, 0.920000)" fill-rule="nonzero">
            <g id="Group">
                <polygon id="Path" fill="#3C9BAA" points="45.51 0.08 45.51 16.57 17.13 16.57 17.13 31.03 44.98 31.03 44.98 47.52 17.13 47.52 17.13 75.04 0 75.04 0 0.04"></polygon>
                <path d="M67.9,50.84 L67.9,0.08 L85.03,0.08 L85.03,49.31 C85.03,56.31 88.957,59.807 96.81,59.8 C104.663,59.793 108.59,56.297 108.59,49.31 L108.59,0.08 L125.72,0.08 L125.72,50.84 C125.72,58.76 123.01,65.007 117.59,69.58 C112.17,74.153 105.243,76.487 96.81,76.58 C88.457,76.58 81.533,74.247 76.04,69.58 C70.547,64.913 67.833,58.667 67.9,50.84 Z" id="Path" fill="#3C9BAA"></path>
                <path d="M205.36,75.04 L186.94,75.04 L172.8,50.41 L164.66,50.41 L164.66,75.04 L147.53,75.04 L147.53,0.0398385369 L177.53,0.0398385369 C180.908,0.028 184.256,0.685 187.379,1.972 C190.502,3.259 193.34,5.152 195.729,7.541 C198.118,9.93 200.011,12.768 201.298,15.891 C202.585,19.014 203.242,22.362 203.23,25.74 C203.23,30.235 201.908,34.63 199.43,38.38 C196.957,42.242 193.508,45.382 189.43,47.48 L205.36,75.04 Z M177.52,16.14 L164.67,16.14 L164.67,35.42 L177.52,35.42 C178.663,35.418 179.791,35.167 180.827,34.685 C181.863,34.204 182.782,33.502 183.52,32.63 C185.141,30.716 186.031,28.288 186.031,25.78 C186.031,23.272 185.141,20.844 183.52,18.93 C182.782,18.058 181.863,17.356 180.827,16.875 C179.791,16.393 178.663,16.142 177.52,16.14 L177.52,16.14 Z" id="Shape" fill="#154960"></path>
                <polygon id="Path" fill="#154960" points="268.99 40.77 268.99 0.08 286.12 0.08 286.12 75.08 273.27 75.08 244.36 34.31 244.36 75 227.22 75 227.22 2.84217094e-14 240.07 2.84217094e-14"></polygon>
                <polygon id="Path" fill="#154960" points="308.47 75.04 308.47 0.04 325.6 0.04 325.6 75.04"></polygon>
                <path d="M30.12,27.52 C32.213,27.52 33.91,25.823 33.91,23.73 C33.91,21.637 32.213,19.94 30.12,19.94 C28.027,19.94 26.33,21.637 26.33,23.73 C26.33,25.823 28.027,27.52 30.12,27.52 Z" id="Path" fill="#154960"></path>
                <path d="M30.12,60.04 C32.213,60.04 33.91,58.343 33.91,56.25 C33.91,54.157 32.213,52.46 30.12,52.46 C28.027,52.46 26.33,54.157 26.33,56.25 C26.33,58.343 28.027,60.04 30.12,60.04 Z" id="Path" fill="#154960"></path>
            </g>
        </g>
    </g>
</svg>